<?xml version="1.0" encoding="UTF-8" standalone="no"?><!DOCTYPE svg PUBLIC "-//W3C//DTD SVG 1.1//EN" "http://www.w3.org/Graphics/SVG/1.1/DTD/svg11.dtd"><svg width="100%" height="100%" viewBox="0 0 250 250" version="1.1" xmlns="http://www.w3.org/2000/svg" xmlns:xlink="http://www.w3.org/1999/xlink" xml:space="preserve" xmlns:serif="http://www.serif.com/" style="fill-rule:evenodd;clip-rule:evenodd;stroke-linejoin:round;stroke-miterlimit:2;"><g id="Layer-1" serif:id="Layer 1"><path d="M239.583,125.702c0,-63.671 -51.3,-115.284 -114.571,-115.284c-63.295,0.013 -114.595,51.613 -114.595,115.296c-0,57.529 41.904,105.221 96.666,113.871l0,-80.558l-29.071,-0l0,-33.313l29.101,0l-0,-25.416c-0,-28.888 17.112,-44.842 43.279,-44.842c12.546,-0 25.65,2.25 25.65,2.25l-0,28.354l-14.45,0c-14.221,0 -18.663,8.896 -18.663,18.017l0,21.625l31.767,-0l-5.071,33.312l-26.708,0l-0,80.554c54.762,-8.65 96.666,-56.337 96.666,-113.866" style="fill:#f5f0e1;fill-rule:nonzero;"/></g></svg>