<?xml version="1.0" encoding="UTF-8" standalone="no"?><!DOCTYPE svg PUBLIC "-//W3C//DTD SVG 1.1//EN" "http://www.w3.org/Graphics/SVG/1.1/DTD/svg11.dtd"><svg width="100%" height="100%" viewBox="0 0 100 100" version="1.1" xmlns="http://www.w3.org/2000/svg" xmlns:xlink="http://www.w3.org/1999/xlink" xml:space="preserve" xmlns:serif="http://www.serif.com/" style="fill-rule:evenodd;clip-rule:evenodd;stroke-linejoin:round;stroke-miterlimit:2;"><path d="M73.604,30.175c-2.983,0 -5.391,-2.408 -5.391,-5.391c-0,-2.985 2.408,-5.394 5.391,-5.394c2.983,0 5.393,2.409 5.393,5.394c0,0.707 -0.138,1.41 -0.409,2.064c-0.27,0.654 -0.667,1.248 -1.169,1.75c-0.5,0.501 -1.096,0.898 -1.75,1.169c-0.655,0.27 -1.357,0.41 -2.065,0.408m-24.034,41.732c-12.778,0 -23.089,-10.312 -23.089,-23.089c0,-12.778 10.311,-23.089 23.089,-23.089c12.776,-0 23.089,10.311 23.089,23.089c0,12.777 -10.313,23.089 -23.089,23.089m45.007,-23.089c0,-6.214 0.055,-12.372 -0.292,-18.576c-0.35,-7.204 -1.994,-13.599 -7.263,-18.868c-5.279,-5.28 -11.662,-6.911 -18.866,-7.261c-6.214,-0.349 -12.372,-0.292 -18.575,-0.292c-6.214,-0 -12.372,-0.057 -18.576,0.292c-7.203,0.35 -13.599,1.994 -18.866,7.261c-5.279,5.28 -6.913,11.664 -7.26,18.868c-0.35,6.215 -0.293,12.372 -0.293,18.576c-0,6.202 -0.057,12.372 0.293,18.574c0.347,7.206 1.991,13.599 7.26,18.868c5.28,5.28 11.663,6.912 18.866,7.261c6.215,0.35 12.372,0.293 18.576,0.293c6.214,-0 12.372,0.057 18.575,-0.293c7.204,-0.349 13.599,-1.991 18.866,-7.261c5.28,-5.279 6.913,-11.662 7.263,-18.868c0.36,-6.202 0.292,-12.359 0.292,-18.574m-45.007,-15.007c-8.262,-0 -15.007,6.744 -15.007,15.007c0,8.263 6.745,15.006 15.007,15.006c8.263,-0 15.006,-6.743 15.006,-15.006c-0,-8.263 -6.743,-15.007 -15.006,-15.007" style="fill:#f5f0e1;fill-rule:nonzero;"/></svg>