<?xml version="1.0" encoding="UTF-8" standalone="no"?><!DOCTYPE svg PUBLIC "-//W3C//DTD SVG 1.1//EN" "http://www.w3.org/Graphics/SVG/1.1/DTD/svg11.dtd"><svg width="100%" height="100%" viewBox="0 0 157 157" version="1.1" xmlns="http://www.w3.org/2000/svg" xmlns:xlink="http://www.w3.org/1999/xlink" xml:space="preserve" xmlns:serif="http://www.serif.com/" style="fill-rule:evenodd;clip-rule:evenodd;stroke-linejoin:round;stroke-miterlimit:2;"><path d="M147.104,33.749c-5.265,2.334 -10.852,3.865 -16.571,4.543c6.025,-3.606 10.537,-9.279 12.69,-15.961c-5.663,3.364 -11.86,5.732 -18.324,7.002c-3.959,-4.217 -9.094,-7.145 -14.738,-8.407c-5.647,-1.261 -11.54,-0.799 -16.919,1.33c-5.377,2.128 -9.993,5.823 -13.246,10.605c-3.253,4.782 -4.995,10.431 -4.997,16.215c-0.006,2.212 0.244,4.419 0.737,6.574c-11.47,-0.574 -22.688,-3.557 -32.932,-8.749c-10.242,-5.193 -19.279,-12.483 -26.522,-21.393c-3.689,6.351 -4.821,13.872 -3.162,21.027c1.659,7.155 5.984,13.409 12.09,17.49c-4.585,-0.14 -9.068,-1.376 -13.077,-3.606l0,0.366c0,6.661 2.306,13.118 6.524,18.271c4.219,5.156 10.091,8.695 16.623,10.014c-2.479,0.675 -5.034,1.012 -7.601,1.004c-1.823,0.003 -3.643,-0.166 -5.436,-0.506c1.843,5.732 5.431,10.746 10.262,14.339c4.829,3.593 10.662,5.587 16.683,5.701c-12.098,9.468 -27.454,13.759 -42.709,11.932c13.191,8.481 28.544,12.98 44.228,12.965c10.797,0.075 21.503,-1.999 31.493,-6.099c9.99,-4.099 19.066,-10.14 26.702,-17.778c7.635,-7.635 13.679,-16.711 17.775,-26.704c4.1,-9.99 6.171,-20.696 6.096,-31.494c0,-1.251 -0.028,-2.492 -0.091,-3.725c5.657,-4.092 10.541,-9.154 14.422,-14.956" style="fill:#f5f0e1;fill-rule:nonzero;"/></svg>